<?xml version="1.0" encoding="UTF-8"?>
<svg xmlns="http://www.w3.org/2000/svg" width="24" height="24" viewBox="0 0 24 24" fill="none">
  <path d="M3.83926 19.9718H6.10838C6.42143 19.9718 6.67518 19.718 6.67518 19.405V9.48672C6.67518 9.17364 6.42143 8.91992 6.10838 8.91992H3.83926C3.52618 8.91992 3.27246 9.17364 3.27246 9.48672V19.405C3.27246 19.718 3.52618 19.9718 3.83926 19.9718Z" fill="white"></path>
  <path d="M3.83926 7.17642H6.10838C6.42143 7.17642 6.67518 6.92267 6.67518 6.60962V4.59463C6.67518 4.28158 6.42143 4.02783 6.10838 4.02783H3.83926C3.52618 4.02783 3.27246 4.28158 3.27246 4.59463V6.60962C3.27246 6.92267 3.52618 7.17642 3.83926 7.17642Z" fill="white"></path>
  <path d="M19.8722 10.0705C19.5533 9.65074 19.0831 9.30557 18.4614 9.03503C17.8398 8.76467 17.1536 8.62939 16.4028 8.62939C14.8786 8.62939 13.5871 9.21107 12.5283 10.3746C12.3177 10.6061 12.1645 10.5555 12.1645 10.2424V9.48685C12.1645 9.17377 11.9107 8.92006 11.5977 8.92006H9.5707C9.25762 8.92006 9.00391 9.17377 9.00391 9.48685V19.4051C9.00391 19.7182 9.25765 19.972 9.5707 19.972H11.8398C12.1529 19.972 12.4066 19.7182 12.4066 19.4051V15.9558C12.4066 14.5188 12.4934 13.5339 12.6669 13.0011C12.8404 12.4683 13.1614 12.0404 13.6296 11.7175C14.0979 11.3946 14.6266 11.233 15.216 11.233C15.6762 11.233 16.0698 11.3461 16.3968 11.5722C16.7238 11.7983 16.9599 12.115 17.1052 12.5228C17.2506 12.9305 17.3232 13.8286 17.3232 15.2172V19.4051C17.3232 19.7181 17.577 19.9719 17.89 19.9719H20.1591C20.4722 19.9719 20.7259 19.7181 20.7259 19.4051V13.7882C20.7259 12.7953 20.6633 12.0323 20.5383 11.4995C20.4133 10.9668 20.1912 10.4904 19.8722 10.0705Z" fill="white"></path>
</svg>
