<?xml version="1.0" encoding="UTF-8"?>
<svg xmlns="http://www.w3.org/2000/svg" width="24" height="24" viewBox="0 0 24 24" fill="none">
  <path fill-rule="evenodd" clip-rule="evenodd" d="M12.0006 7.23959C14.6296 7.23959 16.7609 9.37087 16.7609 11.9999C16.7609 14.629 14.6296 16.7603 12.0006 16.7603C9.37151 16.7603 7.24023 14.629 7.24023 11.9999C7.24023 9.37087 9.37151 7.23959 12.0006 7.23959ZM12.0006 8.82637C13.7532 8.82637 15.1741 10.2472 15.1741 11.9999C15.1741 13.7526 13.7532 15.1735 12.0006 15.1735C10.2479 15.1735 8.82701 13.7526 8.82701 11.9999C8.82701 10.2472 10.2479 8.82637 12.0006 8.82637Z" fill="white"></path>
  <path d="M16.7602 17.5537C16.322 17.5537 15.9668 17.1985 15.9668 16.7603C15.9668 16.3221 16.322 15.9669 16.7602 15.9669C17.1984 15.9669 17.5536 16.3221 17.5536 16.7603C17.5536 17.1985 17.1984 17.5537 16.7602 17.5537Z" fill="white"></path>
  <path fill-rule="evenodd" clip-rule="evenodd" d="M3.79131 18.1279C3.27246 17.1096 3.27246 15.7766 3.27246 13.1105V10.889C3.27246 8.22301 3.27246 6.88996 3.79131 5.87173C4.24769 4.97599 4.97593 4.24774 5.87165 3.79138C6.88994 3.2725 8.22296 3.2725 10.889 3.2725H13.1105C15.7765 3.2725 17.1096 3.2725 18.1278 3.79138C19.0235 4.24774 19.7518 4.97599 20.2081 5.87173C20.727 6.88996 20.727 8.22301 20.727 10.889V13.1105C20.727 15.7766 20.727 17.1096 20.2081 18.1279C19.7518 19.0236 19.0235 19.7518 18.1278 20.2082C17.1096 20.7271 15.7765 20.7271 13.1105 20.7271H10.889C8.22296 20.7271 6.88994 20.7271 5.87165 20.2082C4.97593 19.7518 4.24769 19.0236 3.79131 18.1279ZM13.1105 19.1403H10.889C9.52979 19.1403 8.60582 19.139 7.89163 19.0807C7.19596 19.0239 6.8402 18.9208 6.59203 18.7944C5.99489 18.4901 5.5094 18.0046 5.20513 17.4075C5.07868 17.1593 4.97566 16.8036 4.91882 16.1079C4.86048 15.3937 4.85924 14.4697 4.85924 13.1105V10.889C4.85924 9.5298 4.86048 8.6059 4.91882 7.89169C4.97566 7.19597 5.07868 6.84021 5.20513 6.59204C5.5094 5.99494 5.99489 5.50946 6.59203 5.2052C6.8402 5.07873 7.19596 4.97567 7.89163 4.91887C8.60582 4.86055 9.52979 4.85928 10.889 4.85928H13.1105C14.4697 4.85928 15.3936 4.86055 16.1078 4.91887C16.8035 4.97567 17.1593 5.07873 17.4075 5.2052C18.0046 5.50946 18.49 5.99494 18.7943 6.59204C18.9208 6.84021 19.0238 7.19597 19.0806 7.89169C19.139 8.6059 19.1402 9.5298 19.1402 10.889V13.1105C19.1402 14.4697 19.139 15.3937 19.0806 16.1079C19.0238 16.8036 18.9208 17.1593 18.7943 17.4075C18.49 18.0046 18.0046 18.4901 17.4075 18.7944C17.1593 18.9208 16.8035 19.0239 16.1078 19.0807C15.3936 19.139 14.4697 19.1403 13.1105 19.1403Z" fill="white"></path>
</svg>
